<svg width="40" height="40" viewBox="0 0 40 40" fill="none" xmlns="http://www.w3.org/2000/svg">
<mask id="mask0_367_105" style="mask-type:alpha" maskUnits="userSpaceOnUse" x="0" y="0" width="40" height="40">
<rect width="40" height="40" fill="#D9D9D9"/>
</mask>
<g mask="url(#mask0_367_105)">
<path d="M5 33.4617V7.43583C5 6.75306 5.23528 6.17639 5.70583 5.70583C6.17639 5.23528 6.75306 5 7.43583 5H32.5642C33.2469 5 33.8236 5.23528 34.2942 5.70583C34.7647 6.17639 35 6.75306 35 7.43583V25.8975C35 26.5803 34.7647 27.1569 34.2942 27.6275C33.8236 28.0981 33.2469 28.3333 32.5642 28.3333H10.1283L5 33.4617ZM9.51083 26.9229H32.5642C32.8206 26.9229 33.0556 26.8161 33.2692 26.6025C33.4828 26.3889 33.5896 26.1539 33.5896 25.8975V7.43583C33.5896 7.17945 33.4828 6.94444 33.2692 6.73083C33.0556 6.51722 32.8206 6.41042 32.5642 6.41042H7.43583C7.17944 6.41042 6.94444 6.51722 6.73083 6.73083C6.51722 6.94444 6.41042 7.17945 6.41042 7.43583V30.1017L9.51083 26.9229Z" fill="#1C1B1F"/>
</g>
</svg>
