<svg width="40" height="40" viewBox="0 0 40 40" fill="none" xmlns="http://www.w3.org/2000/svg">
<mask id="mask0_366_105" style="mask-type:alpha" maskUnits="userSpaceOnUse" x="0" y="0" width="40" height="40">
<rect width="40" height="40" fill="#D9D9D9"/>
</mask>
<g mask="url(#mask0_366_105)">
<path d="M20 32.75L18.9529 31.7904C16.1874 29.2635 13.9036 27.0956 12.1017 25.2867C10.2994 23.4781 8.87208 21.8845 7.81958 20.5058C6.76681 19.1272 6.03361 17.884 5.62 16.7763C5.20667 15.6685 5 14.5636 5 13.4617C5 11.3767 5.70764 9.62571 7.12292 8.20876C8.53819 6.79182 10.2878 6.08334 12.3717 6.08334C13.8731 6.08334 15.2726 6.47973 16.5704 7.27251C17.8682 8.06529 19.0114 9.22237 20 10.7438C21.0428 9.19515 22.2017 8.03126 23.4767 7.25209C24.7517 6.47293 26.1356 6.08334 27.6283 6.08334C29.7122 6.08334 31.4618 6.79182 32.8771 8.20876C34.2924 9.62571 35 11.3767 35 13.4617C35 14.5636 34.7933 15.6685 34.38 16.7763C33.9664 17.884 33.234 19.1257 32.1829 20.5013C31.1318 21.8768 29.7062 23.4704 27.9062 25.2821C26.1063 27.094 23.8199 29.2635 21.0471 31.7904L20 32.75ZM20 30.8504C22.7075 28.3882 24.9356 26.279 26.6842 24.5229C28.4325 22.7668 29.8193 21.2356 30.8446 19.9292C31.8699 18.6231 32.5837 17.4654 32.9862 16.4563C33.3885 15.4468 33.5896 14.4499 33.5896 13.4654C33.5896 11.7563 33.0226 10.3336 31.8888 9.19751C30.7549 8.06168 29.3368 7.49376 27.6346 7.49376C26.2524 7.49376 24.986 7.89376 23.8354 8.69376C22.6851 9.49404 21.6196 10.7257 20.6388 12.3888H19.3546C18.3568 10.7229 17.2847 9.49056 16.1383 8.69168C14.9917 7.89306 13.734 7.49376 12.3654 7.49376C10.6846 7.49376 9.27181 8.06168 8.12708 9.19751C6.98264 10.3336 6.41042 11.7603 6.41042 13.4775C6.41042 14.4578 6.61278 15.4529 7.0175 16.4629C7.42194 17.4732 8.13194 18.6314 9.1475 19.9375C10.1631 21.2433 11.5512 22.7707 13.3121 24.5196C15.0726 26.2688 17.3019 28.379 20 30.8504Z" fill="#1C1B1F"/>
</g>
</svg>
