<svg width="46" height="45" viewBox="0 0 46 45" fill="none" xmlns="http://www.w3.org/2000/svg">
<path d="M23 0C10.2925 0 0 10.2983 0 23C0 33.1641 6.5895 41.7833 15.7262 44.8212C16.8762 45.0378 17.2979 44.3267 17.2979 43.7153C17.2979 43.1691 17.2788 41.722 17.2692 39.8053C10.8713 41.193 9.522 36.7195 9.522 36.7195C8.4755 34.0649 6.96325 33.3557 6.96325 33.3557C4.87983 31.9297 7.12425 31.9585 7.12425 31.9585C9.43383 32.1195 10.6471 34.3275 10.6471 34.3275C12.6979 37.8446 16.031 36.8287 17.3458 36.2403C17.5528 34.753 18.1451 33.7391 18.8025 33.1641C13.6946 32.5891 8.326 30.6111 8.326 21.7982C8.326 19.2874 9.21725 17.2366 10.6931 15.6266C10.4343 15.0458 9.65808 12.7075 10.8943 9.53925C10.8943 9.53925 12.8206 8.92208 17.2193 11.8968C19.0593 11.385 21.0143 11.132 22.9693 11.1205C24.9243 11.132 26.8793 11.385 28.7193 11.8968C33.0893 8.92208 35.0156 9.53925 35.0156 9.53925C36.2518 12.7075 35.4756 15.0458 35.2456 15.6266C36.7118 17.2366 37.6031 19.2874 37.6031 21.7982C37.6031 30.6341 32.2268 32.5795 27.1093 33.1449C27.9143 33.8349 28.6618 35.2456 28.6618 37.3999C28.6618 40.4781 28.6331 42.9506 28.6331 43.6981C28.6331 44.3018 29.0356 45.0206 30.2143 44.7906C39.4162 41.7737 46 33.1487 46 23C46 10.2983 35.7017 0 23 0Z" fill="#1A1A1A"/>
</svg>
