<svg width="46" height="46" viewBox="0 0 46 46" fill="none" xmlns="http://www.w3.org/2000/svg">
<path d="M23.002 0C35.7046 0 46.0028 10.2974 46.0029 23C46.0029 35.7027 35.7046 46.001 23.002 46.001C10.2994 46.0008 0.00195312 35.7026 0.00195312 23C0.00208816 10.2975 10.2995 0.000135043 23.002 0ZM37.501 14.3662C37.5008 12.0062 34.8063 10.6601 32.9199 12.0752L31.1377 13.4111L23.501 19.1396L15.8652 13.4131L14.083 12.0752C12.1954 10.6589 9.50217 12.0062 9.50195 14.3662V30.5938C9.50181 30.8444 9.55069 31.0926 9.64648 31.3242C9.74234 31.5559 9.8833 31.767 10.0605 31.9443C10.2377 32.1215 10.4482 32.2625 10.6797 32.3584C10.9112 32.4543 11.1595 32.5039 11.4102 32.5039H15.8652V21.6846L23.501 27.4131L31.1377 21.6846V32.502H35.5928C36.6474 32.502 37.5009 31.6484 37.501 30.5938V14.3662Z" fill="#1A1A1A"/>
</svg>
