<svg width="40" height="40" viewBox="0 0 40 40" fill="none" xmlns="http://www.w3.org/2000/svg">
<mask id="mask0_367_117" style="mask-type:alpha" maskUnits="userSpaceOnUse" x="0" y="0" width="40" height="40">
<rect width="40" height="40" fill="#D9D9D9"/>
</mask>
<g mask="url(#mask0_367_117)">
<path d="M10.7693 36.6667C10.0866 36.6667 9.50989 36.4314 9.03933 35.9608C8.56877 35.4903 8.3335 34.9136 8.3335 34.2308V17.0575C8.3335 16.375 8.56877 15.7983 9.03933 15.3275C9.50989 14.857 10.0866 14.6217 10.7693 14.6217H14.9297V16.0321H10.7693C10.5129 16.0321 10.2779 16.1389 10.0643 16.3525C9.85072 16.5661 9.74391 16.8011 9.74391 17.0575V34.2308C9.74391 34.4872 9.85072 34.7222 10.0643 34.9358C10.2779 35.1495 10.5129 35.2563 10.7693 35.2563H29.231C29.4874 35.2563 29.7224 35.1495 29.936 34.9358C30.1496 34.7222 30.2564 34.4872 30.2564 34.2308V17.0575C30.2564 16.8011 30.1496 16.5661 29.936 16.3525C29.7224 16.1389 29.4874 16.0321 29.231 16.0321H25.0577V14.6217H29.231C29.9138 14.6217 30.4904 14.857 30.961 15.3275C31.4316 15.7983 31.6668 16.375 31.6668 17.0575V34.2308C31.6668 34.9136 31.4316 35.4903 30.961 35.9608C30.4904 36.4314 29.9138 36.6667 29.231 36.6667H10.7693ZM19.2885 25.4892V7.21667L15.4852 11.0204L14.4531 10.0063L19.9939 4.48709L25.5131 10.0063L24.5022 11.0204L20.6989 7.21667V25.4892H19.2885Z" fill="#1C1B1F"/>
</g>
</svg>
