<svg width="46" height="46" viewBox="0 0 46 46" fill="none" xmlns="http://www.w3.org/2000/svg">
<path d="M23.001 0C35.7036 0 46.0018 10.2974 46.002 23C46.002 35.7027 35.7037 46.001 23.001 46.001C10.2984 46.0008 0.000976562 35.7026 0.000976562 23C0.0011116 10.2975 10.2985 0.000135043 23.001 0ZM10.6377 36H16.3965V17.1455H10.6377V36ZM30.8408 16.7402C27.7359 16.7402 25.846 18.5397 25.0811 19.7998H24.9922L24.7217 17.1455H19.7275C19.7725 18.8556 19.8613 20.8357 19.8613 23.1758V36H25.6201V25.1543C25.6201 24.6143 25.6658 24.0749 25.8008 23.6699C26.2508 22.5899 27.1966 21.4639 28.7715 21.4639C30.8862 21.464 31.6963 23.1305 31.6963 25.5605V36H37.501V24.8857C37.5009 19.3057 34.6205 16.7404 30.8408 16.7402ZM13.5625 9C11.7177 9 10.5011 10.2599 10.501 11.9248C10.501 13.5449 11.6717 14.8486 13.4717 14.8486C15.4066 14.8486 16.6212 13.5449 16.5762 11.9248C16.576 10.2599 15.4072 9.00009 13.5625 9Z" fill="#1A1A1A"/>
</svg>
