<svg width="20" height="20" viewBox="0 0 20 20" fill="none" xmlns="http://www.w3.org/2000/svg">
<mask id="mask0_48_146" style="mask-type:alpha" maskUnits="userSpaceOnUse" x="0" y="0" width="20" height="20">
<rect width="20" height="20" fill="#D9D9D9"/>
</mask>
<g mask="url(#mask0_48_146)">
<path d="M18.8442 16.7917L13.0922 11.4956C12.6426 11.8623 12.1208 12.1433 11.5267 12.3385C10.9328 12.5338 10.3356 12.6315 9.73504 12.6315C8.29045 12.6315 7.06785 12.1717 6.06723 11.2523C5.06676 10.333 4.56653 9.21133 4.56653 7.8873C4.56653 6.56327 5.06578 5.4407 6.06429 4.51959C7.06295 3.59848 8.28102 3.13792 9.71852 3.13792C11.156 3.13792 12.3773 3.59785 13.3823 4.51772C14.3871 5.43758 14.8895 6.55931 14.8895 7.88292C14.8895 8.45737 14.7781 9.01827 14.5553 9.56563C14.3325 10.113 14.0277 10.5879 13.6409 10.9904L19.3966 16.2725L18.8442 16.7917ZM9.73142 11.9263C10.9631 11.9263 12.0031 11.5367 12.8514 10.7577C13.6996 9.97869 14.1238 9.02098 14.1238 7.88459C14.1238 6.7482 13.6996 5.79049 12.8514 5.01147C12.0031 4.23244 10.9631 3.84292 9.73142 3.84292C8.49788 3.84292 7.4563 4.23244 6.60669 5.01147C5.75707 5.79049 5.33227 6.7482 5.33227 7.88459C5.33227 9.02098 5.75707 9.97869 6.60669 10.7577C7.4563 11.5367 8.49788 11.9263 9.73142 11.9263Z" fill="#1A1A1A"/>
</g>
</svg>
